M48
; DRILL file {KiCad 7.0.8-7.0.8~ubuntu22.04.1} date Sat 28 Oct 2023 06:33:33 PM MSK
; FORMAT={-:-/ absolute / inch / decimal}
; #@! TF.CreationDate,2023-10-28T18:33:33+03:00
; #@! TF.GenerationSoftware,Kicad,Pcbnew,7.0.8-7.0.8~ubuntu22.04.1
; #@! TF.FileFunction,Plated,1,2,PTH
FMAT,2
INCH
; #@! TA.AperFunction,Plated,PTH,ComponentDrill
T1C0.0394
; #@! TA.AperFunction,Plated,PTH,ComponentDrill
T2C0.0402
; #@! TA.AperFunction,Plated,PTH,ComponentDrill
T3C0.0591
%
G90
G05
T2
X5.4263Y-4.2352
X5.5129Y-4.2852
X5.5591Y-4.0233
X5.5995Y-4.3352
X5.6091Y-3.9367
X5.6591Y-3.8501
X5.6861Y-4.3852
X5.7727Y-4.4352
X5.7763Y-3.629
X5.8593Y-4.4852
X5.8629Y-3.679
X5.9459Y-4.5352
X5.9495Y-3.729
X6.0325Y-4.5852
X6.0361Y-3.779
X6.1191Y-4.6352
X6.1227Y-3.829
X6.2057Y-4.6852
X6.2093Y-3.879
X6.2923Y-4.7352
X6.2959Y-3.929
X6.3789Y-4.7852
X6.3825Y-3.979
X6.4655Y-4.8352
X6.4691Y-4.029
X6.5521Y-4.8852
X6.5557Y-4.079
X6.6387Y-4.9352
X6.6423Y-4.129
X6.7253Y-4.9852
X6.7289Y-4.179
X6.8119Y-5.0352
X6.8155Y-4.229
X6.8985Y-5.0852
X6.9021Y-4.279
X6.9851Y-5.1352
X6.9887Y-4.329
X7.0717Y-5.1852
X7.0753Y-4.379
X7.1619Y-4.429
X7.2485Y-4.479
X7.3351Y-4.529
X7.4217Y-4.579
T3
X4.3144Y-1.9897
X4.3144Y-2.7397
X4.3144Y-3.4897
X4.4303Y-5.0477
X4.5644Y-2.0897
X4.5644Y-2.8397
X4.5644Y-3.5897
X4.5968Y-5.2593
X4.8053Y-4.3982
X4.9718Y-4.6098
X5.0644Y-1.9897
X5.0644Y-2.7397
X5.0644Y-3.4897
X5.3144Y-2.0897
X5.3144Y-2.8397
X5.3144Y-3.5897
X5.4548Y-4.7732
X5.6213Y-4.9848
X5.8144Y-1.4346
X5.8144Y-2.1846
X5.8144Y-2.9346
X6.0644Y-1.5346
X6.0644Y-2.2846
X6.0644Y-3.0346
X6.1043Y-5.1482
X6.2709Y-5.3598
X6.5644Y-1.7121
X6.5644Y-2.4621
X6.5644Y-3.2121
X6.8144Y-1.8121
X6.8144Y-2.5621
X6.8144Y-3.3121
X7.3144Y-1.9897
X7.3144Y-2.7397
X7.3144Y-3.4897
X7.5644Y-2.0897
X7.5644Y-2.8397
X7.5644Y-3.5897
X8.0644Y-1.9897
X8.0644Y-2.7397
X8.3144Y-2.0897
X8.3144Y-2.8397
T1
G00X5.0049Y-1.6228
M15
G01X5.0246Y-1.6228
M16
G05
G00X5.123Y-1.6228
M15
G01X5.1427Y-1.6228
M16
G05
G00X5.2805Y-1.6228
M15
G01X5.3002Y-1.6228
M16
G05
G00X5.3396Y-1.4535
M15
G01X5.3593Y-1.4535
M16
G05
T0
M30
